<svg width="532" height="532" viewBox="0 0 532 532" fill="none" xmlns="http://www.w3.org/2000/svg">
<rect width="532" height="532" rx="100" fill="white"/>
<circle cx="433" cy="428" r="16" fill="black"/>
<circle cx="433" cy="428" r="7" fill="white"/>
<rect x="404" y="412" width="9" height="32" rx="4.5" fill="black"/>
<path d="M404 405.5C404 403.015 406.015 401 408.5 401C410.985 401 413 403.015 413 405.5C413 407.985 410.985 410 408.5 410C406.015 410 404 407.985 404 405.5Z" fill="#0A84FF"/>
<path fill-rule="evenodd" clip-rule="evenodd" d="M266 162H181C175.477 162 171 157.523 171 152V94C171 91.2386 173.239 89 176 89H204C206.761 89 209 91.2386 209 94V122C209 124.761 211.239 127 214 127H242C244.761 127 247 124.761 247 122V94C247 91.2386 249.239 89 252 89H280C282.761 89 285 91.2386 285 94V122C285 124.761 287.239 127 290 127H318C320.761 127 323 124.761 323 122V94C323 91.2386 325.239 89 328 89H356C358.761 89 361 91.2386 361 94V164.858C361 167.51 359.946 170.054 358.071 171.929L329.554 200.446C327.318 202.682 326.271 205.844 326.731 208.972L348.286 355.545C349.174 361.582 344.495 367 338.392 367H266V382H358.333C360.497 382 362.602 382.702 364.333 384L387 401C389.518 402.889 391 405.852 391 409V434C391 439.523 386.523 444 381 444H151C145.477 444 141 439.523 141 434V409C141 405.852 142.482 402.889 145 401L177.706 376.471C179.816 374.888 181.215 372.536 181.599 369.926L205.269 208.972C205.729 205.844 204.682 202.682 202.446 200.446L187.536 185.536C184.386 182.386 186.617 177 191.071 177H266V162Z" fill="url(#paint0_linear_32_119)"/>
<defs>
<linearGradient id="paint0_linear_32_119" x1="391" y1="266.5" x2="141" y2="266.5" gradientUnits="userSpaceOnUse">
<stop offset="0.5" stop-color="#0B84FF"/>
<stop offset="0.5"/>
</linearGradient>
</defs>
</svg>
